<?xml version="1.0" encoding="UTF-8" standalone="no"?>
<!DOCTYPE svg PUBLIC "-//W3C//DTD SVG 1.1//EN"
    "http://www.w3.org/Graphics/SVG/1.1/DTD/svg11.dtd">
<svg width="700" height="1375" viewBox="-25 -25 1400 2750"
    xmlns="http://www.w3.org/2000/svg"
    xmlns:xlink="http://www.w3.org/1999/xlink">
<rect width="1350" height="2700" x="0" y="0" fill="#C0D0C0" /> <rect width="1400" height="25" x="-25" y="-25" fill="darkgreen" />
 <rect width="1400" height="25" x="-25" y="2700" fill="darkgreen" />
 <rect width="1400" height="25" x="-25" y="-25" fill="darkgreen" />
 <rect width="1400" height="25" x="-25" y="2700" fill="darkgreen" />
 <rect width="25" height="2750" x="-25" y="-25" fill="darkgreen" />
 <rect width="25" height="2750" x="1350" y="-25" fill="darkgreen" />
 <rect width="25" height="2750" x="-25" y="-25" fill="darkgreen" />
 <rect width="25" height="2750" x="1350" y="-25" fill="darkgreen" />
 <circle cx="0.0" cy="0.0" r="114.0" fill="black" />
 <circle cx="0.0" cy="1350.0" r="114.0" fill="black" />
 <circle cx="0.0" cy="2700.0" r="114.0" fill="black" />
 <circle cx="1350.0" cy="0.0" r="114.0" fill="black" />
 <circle cx="1350.0" cy="1350.0" r="114.0" fill="black" />
 <circle cx="1350.0" cy="2700.0" r="114.0" fill="black" />
 <circle cx="675.0" cy="675.0" r="28.5" fill="YELLOW" />
 <circle cx="644.0913812015212" cy="621.1849639481128" r="28.5" fill="BLUE" />
 <circle cx="706.5472335871077" cy="621.1616446578503" r="28.5" fill="RED" />
 <circle id="cue" cx="672.2496051731046" cy="2025.0" r="28.5" fill="WHITE" onclick="makeMove()"/>
</svg>
